<?xml version="1.0" standalone="no"?>
<!DOCTYPE svg PUBLIC "-//W3C//DTD SVG 20010904//EN"
 "http://www.w3.org/TR/2001/REC-SVG-20010904/DTD/svg10.dtd">
<svg version="1.0" xmlns="http://www.w3.org/2000/svg"
 width="512.000000pt" height="512.000000pt" viewBox="0 0 512.000000 512.000000"
 preserveAspectRatio="xMidYMid meet">

<g transform="translate(0.000000,512.000000) scale(0.100000,-0.100000)"
fill="#2ee6a8" stroke="none">
<path d="M3610 5102 c-128 -34 -239 -124 -298 -244 -32 -65 -34 -67 -89 -83
-144 -42 -257 -136 -323 -268 -22 -44 -40 -88 -40 -98 0 -10 -5 -21 -10 -24
-6 -4 -322 77 -704 179 -381 102 -700 186 -709 186 -31 0 -65 -23 -81 -54 -24
-47 -906 -3351 -906 -3394 0 -71 18 -80 365 -172 171 -46 318 -85 327 -88 16
-4 18 -40 20 -494 l3 -490 33 -29 32 -29 1656 0 1656 0 34 34 34 34 0 1744 0
1743 30 110 c36 134 38 175 8 210 -20 22 -74 39 -398 126 -206 55 -380 101
-386 104 -8 2 -9 16 -2 47 10 40 14 45 77 75 162 77 261 238 261 424 0 309
-289 530 -590 451z m206 -197 c109 -32 184 -137 184 -254 -1 -192 -179 -318
-361 -256 -177 60 -234 293 -107 432 80 86 172 112 284 78z m-542 -362 c19
-120 130 -257 257 -318 41 -19 83 -35 96 -35 32 0 36 -15 16 -57 -28 -61 -102
-127 -166 -152 -158 -59 -325 7 -399 156 -29 59 -33 77 -32 143 0 88 22 146
80 209 31 35 112 89 135 91 4 0 9 -17 13 -37z m-1099 -193 c352 -94 650 -175
662 -180 13 -5 24 -22 28 -42 4 -18 20 -57 36 -87 l29 -54 -65 -68 c-57 -59
-65 -72 -65 -106 0 -46 19 -76 59 -93 46 -19 77 -5 147 62 l64 61 67 -31 c84
-38 140 -51 220 -52 128 0 252 45 340 124 l50 45 347 -94 c191 -51 350 -95
352 -98 5 -5 -663 -2507 -671 -2515 -2 -3 -125 28 -272 67 -147 39 -276 71
-285 71 -31 0 -69 -23 -82 -49 -7 -15 -44 -141 -81 -281 -37 -140 -71 -259
-75 -263 -4 -4 -200 44 -436 107 -787 211 -1577 423 -1726 462 -82 21 -148 42
-148 45 0 4 189 712 420 1574 231 862 420 1569 420 1571 0 2 6 1 13 -1 6 -3
300 -81 652 -175z m2235 -2860 l0 -1290 -1525 0 -1525 0 0 390 c0 219 4 390 9
390 5 0 118 -30 252 -66 1142 -307 1408 -377 1435 -376 22 0 148 67 425 227
217 125 406 236 420 246 15 10 31 31 37 46 11 26 462 1705 462 1717 0 4 2 6 5
6 3 0 5 -580 5 -1290z m-838 -429 c4 -4 -72 -53 -169 -109 -97 -56 -178 -100
-181 -97 -3 3 7 51 22 107 15 57 31 119 37 140 l9 36 138 -35 c75 -20 140 -39
144 -42z"/>
<path d="M1658 3414 c-53 -28 -66 -102 -25 -146 29 -31 -73 -2 1090 -313 651
-175 966 -255 983 -251 70 18 98 107 52 161 -21 23 -128 54 -1028 295 -553
149 -1014 270 -1025 270 -11 -1 -32 -7 -47 -16z"/>
<path d="M1542 3015 c-55 -46 -44 -131 20 -160 18 -8 479 -134 1025 -280 678
-182 1000 -264 1018 -259 34 8 75 59 75 92 0 51 -34 90 -92 106 -271 77 -1969
526 -1990 526 -14 0 -40 -11 -56 -25z"/>
<path d="M1437 2630 c-49 -39 -46 -121 6 -155 31 -20 571 -165 615 -165 24 0
42 9 63 29 39 40 40 89 2 130 -25 27 -59 38 -310 105 -155 42 -297 76 -316 76
-19 0 -46 -9 -60 -20z"/>
<path d="M2445 2378 c-88 -48 -67 -172 31 -185 36 -5 46 -1 75 25 28 25 34 37
34 72 0 73 -79 122 -140 88z"/>
</g>
</svg>
